# xmcd CD database file
#
# Track frame offsets:
#	150
#	14338
#	28572
#	43583
#	58035
#	72582
#	89643
#	106129
#	120343
#	139941
#	160079
#	178496
#	198655
#	214448
#	229746
#	244700
#
# Disc length: 3502 seconds
#
# Revision: 2
# Processed by: cddbd v1.4b41PL1 Copyright (c) Steve Scherf et al.
# Submitted via: Feurio! 1.52 - http://www.feurio.com
#
DISCID=eb0dac10
DTITLE=www.dancenet.net 5 - CD 2
DYEAR=1900
DGENRE=
TTITLE0=Superfunk - The Young MC
TTITLE1=Five and Queen - We Will Rock You
TTITLE2=Alcazar - Ritmo del amor
TTITLE3=Ruben Gomez - Siempre Manana (Tomorrow Forever)
TTITLE4=Jody Bernal - Que si que no
TTITLE5=Backstreet Boys - The One
TTITLE6=Girl Thing - Last One Standing
TTITLE7=N'Sync - I´ll Never Stop
TTITLE8=Christina Aguilera - I Turn To You (Thunderpuss remix)
TTITLE9=TLC - Unpretty (Don't Look Any Further mix)
TTITLE10=Aaliyah - Try Again
TTITLE11=Heather Small - Holding On
TTITLE12=Shanks and Bigfoot - Sing-A-Long
TTITLE13=E - Rotic - Don't Make Me Wet
TTITLE14=French Affair - Poison
TTITLE15=La Bouche - All I Want
EXTD=
EXTT0=
EXTT1=
EXTT2=
EXTT3=
EXTT4=
EXTT5=
EXTT6=
EXTT7=
EXTT8=
EXTT9=
EXTT10=
EXTT11=
EXTT12=
EXTT13=
EXTT14=
EXTT15=
PLAYORDER=
